<svg width="216" height="137" viewBox="0 0 216 137" fill="none" xmlns="http://www.w3.org/2000/svg">
<path d="M72 112C63.4954 112 55.1818 109.449 48.1105 104.669C41.0392 99.8891 35.5278 93.0953 32.2732 85.1467C29.0186 77.1982 28.1671 68.4518 29.8263 60.0136C31.4854 51.5754 35.5808 43.8245 41.5944 37.7409C47.6081 31.6573 55.2699 27.5143 63.6111 25.8359C71.9523 24.1574 80.5982 25.0188 88.4554 28.3113C96.3126 31.6037 103.028 37.1792 107.753 44.3327C112.478 51.4862 115 59.8965 115 68.5C114.988 80.0331 110.453 91.0902 102.392 99.2454C94.3306 107.4 83.4005 111.988 72 112ZM72 32.25C64.9128 32.25 57.9848 34.376 52.0921 38.3592C46.1993 42.3424 41.6065 48.0039 38.8943 54.6277C36.1822 61.2516 35.4726 68.5402 36.8552 75.572C38.2378 82.6039 41.6506 89.063 46.662 94.1326C51.6734 99.2023 58.0583 102.655 65.0093 104.053C71.9603 105.452 79.1651 104.734 85.7128 101.991C92.2605 99.247 97.8569 94.6007 101.794 88.6394C105.732 82.6781 107.833 75.6696 107.833 68.5C107.823 58.8892 104.044 49.675 97.3265 42.8791C90.6087 36.0831 81.5004 32.2606 72 32.25Z" fill="#999999"/>
<path d="M72 97C66.2643 97 60.6575 95.3285 55.8885 92.1969C51.1195 89.0653 47.4024 84.6142 45.2075 79.4065C43.0126 74.1988 42.4383 68.4684 43.5572 62.9399C44.6762 57.4115 47.4382 52.3333 51.4939 48.3475C55.5496 44.3617 60.7169 41.6473 66.3424 40.5476C71.9678 39.448 77.7988 40.0123 83.0978 42.1694C88.3969 44.3265 92.9261 47.9795 96.1126 52.6663C99.2992 57.3531 101 62.8632 101 68.5C100.991 76.0561 97.9332 83.3002 92.4966 88.6432C87.0599 93.9861 79.6886 96.9915 72 97ZM72 47.125C67.6983 47.125 63.4931 48.3786 59.9164 50.7274C56.3396 53.0761 53.5518 56.4144 51.9056 60.3202C50.2594 64.2259 49.8287 68.5237 50.6679 72.6701C51.5072 76.8164 53.5786 80.6251 56.6204 83.6144C59.6622 86.6038 63.5377 88.6395 67.7568 89.4643C71.9759 90.289 76.3491 89.8658 80.3234 88.2479C84.2977 86.6301 87.6945 83.8904 90.0845 80.3753C92.4744 76.8602 93.75 72.7276 93.75 68.5C93.7442 62.8327 91.4509 57.3992 87.3732 53.3919C83.2955 49.3845 77.7667 47.1307 72 47.125Z" fill="#999999"/>
<path d="M71.5 83C68.6322 83 65.8288 82.1496 63.4442 80.5563C61.0597 78.963 59.2012 76.6984 58.1038 74.0489C57.0063 71.3994 56.7191 68.4839 57.2786 65.6712C57.8381 62.8585 59.2191 60.2748 61.247 58.247C63.2748 56.2191 65.8585 54.8381 68.6712 54.2786C71.4839 53.7191 74.3994 54.0063 77.0489 55.1038C79.6984 56.2012 81.963 58.0597 83.5563 60.4442C85.1496 62.8288 86 65.6322 86 68.5C86 72.3456 84.4723 76.0338 81.753 78.753C79.0338 81.4723 75.3456 83 71.5 83ZM71.5 61.25C70.0661 61.25 68.6644 61.6752 67.4721 62.4719C66.2799 63.2685 65.3506 64.4008 64.8019 65.7255C64.2531 67.0503 64.1096 68.5081 64.3893 69.9144C64.6691 71.3208 65.3596 72.6126 66.3735 73.6265C67.3874 74.6405 68.6792 75.331 70.0856 75.6107C71.492 75.8904 72.9497 75.7469 74.2745 75.1981C75.5992 74.6494 76.7315 73.7201 77.5282 72.5279C78.3248 71.3356 78.75 69.9339 78.75 68.5C78.75 66.5772 77.9862 64.7331 76.6265 63.3735C75.2669 62.0138 73.4228 61.25 71.5 61.25Z" fill="#999999"/>
<path d="M76.1778 78.291L81.2933 73.1757L103 94.8811L97.8808 99.9964L76.1778 78.291ZM40 42.1153L45.1155 37L66.8222 58.7054L61.7031 63.8207L40 42.1153ZM40 94.8811L61.7067 73.1757L66.8222 78.2946L45.1155 100L40 94.8811ZM76.1778 58.7054L97.8845 37L103 42.1189L81.2933 63.8243L76.1778 58.7054Z" fill="#999999"/>
<path d="M168 47H196V61H168V47Z" fill="white"/>
<path d="M180 47H187V61H180V47Z" fill="white"/>
<path d="M154.571 22.1333C153.624 22.1333 152.716 21.7576 152.046 21.0887C151.376 20.4198 151 19.5126 151 18.5667C151 17.6207 151.376 16.7135 152.046 16.0446C152.716 15.3758 153.624 15 154.571 15C155.519 15 156.427 15.3758 157.097 16.0446C157.767 16.7135 158.143 17.6207 158.143 18.5667C158.143 19.5126 157.767 20.4198 157.097 21.0887C156.427 21.7576 155.519 22.1333 154.571 22.1333ZM154.571 36.4C153.624 36.4 152.716 36.0242 152.046 35.3553C151.376 34.6865 151 33.7793 151 32.8333C151 31.8874 151.376 30.9802 152.046 30.3113C152.716 29.6424 153.624 29.2667 154.571 29.2667C155.519 29.2667 156.427 29.6424 157.097 30.3113C157.767 30.9802 158.143 31.8874 158.143 32.8333C158.143 33.7793 157.767 34.6865 157.097 35.3553C156.427 36.0242 155.519 36.4 154.571 36.4ZM168.857 22.1333C167.91 22.1333 167.002 21.7576 166.332 21.0887C165.662 20.4198 165.286 19.5126 165.286 18.5667C165.286 17.6207 165.662 16.7135 166.332 16.0446C167.002 15.3758 167.91 15 168.857 15C169.804 15 170.713 15.3758 171.383 16.0446C172.052 16.7135 172.429 17.6207 172.429 18.5667C172.429 19.5126 172.052 20.4198 171.383 21.0887C170.713 21.7576 169.804 22.1333 168.857 22.1333ZM168.857 36.4C167.91 36.4 167.002 36.0242 166.332 35.3553C165.662 34.6865 165.286 33.7793 165.286 32.8333C165.286 31.8874 165.662 30.9802 166.332 30.3113C167.002 29.6424 167.91 29.2667 168.857 29.2667C169.804 29.2667 170.713 29.6424 171.383 30.3113C172.052 30.9802 172.429 31.8874 172.429 32.8333C172.429 33.7793 172.052 34.6865 171.383 35.3553C170.713 36.0242 169.804 36.4 168.857 36.4ZM183.143 22.1333C182.196 22.1333 181.287 21.7576 180.617 21.0887C179.948 20.4198 179.571 19.5126 179.571 18.5667C179.571 17.6207 179.948 16.7135 180.617 16.0446C181.287 15.3758 182.196 15 183.143 15C184.09 15 184.998 15.3758 185.668 16.0446C186.338 16.7135 186.714 17.6207 186.714 18.5667C186.714 19.5126 186.338 20.4198 185.668 21.0887C184.998 21.7576 184.09 22.1333 183.143 22.1333ZM183.143 36.4C182.196 36.4 181.287 36.0242 180.617 35.3553C179.948 34.6865 179.571 33.7793 179.571 32.8333C179.571 31.8874 179.948 30.9802 180.617 30.3113C181.287 29.6424 182.196 29.2667 183.143 29.2667C184.09 29.2667 184.998 29.6424 185.668 30.3113C186.338 30.9802 186.714 31.8874 186.714 32.8333C186.714 33.7793 186.338 34.6865 185.668 35.3553C184.998 36.0242 184.09 36.4 183.143 36.4ZM197.429 22.1333C196.481 22.1333 195.573 21.7576 194.903 21.0887C194.233 20.4198 193.857 19.5126 193.857 18.5667C193.857 17.6207 194.233 16.7135 194.903 16.0446C195.573 15.3758 196.481 15 197.429 15C198.376 15 199.284 15.3758 199.954 16.0446C200.624 16.7135 201 17.6207 201 18.5667C201 19.5126 200.624 20.4198 199.954 21.0887C199.284 21.7576 198.376 22.1333 197.429 22.1333ZM197.429 36.4C196.481 36.4 195.573 36.0242 194.903 35.3553C194.233 34.6865 193.857 33.7793 193.857 32.8333C193.857 31.8874 194.233 30.9802 194.903 30.3113C195.573 29.6424 196.481 29.2667 197.429 29.2667C198.376 29.2667 199.284 29.6424 199.954 30.3113C200.624 30.9802 201 31.8874 201 32.8333C201 33.7793 200.624 34.6865 199.954 35.3553C199.284 36.0242 198.376 36.4 197.429 36.4ZM154.571 50.6667C153.624 50.6667 152.716 50.2909 152.046 49.622C151.376 48.9531 151 48.0459 151 47.1C151 46.1541 151.376 45.2469 152.046 44.578C152.716 43.9091 153.624 43.5333 154.571 43.5333C155.519 43.5333 156.427 43.9091 157.097 44.578C157.767 45.2469 158.143 46.1541 158.143 47.1C158.143 48.0459 157.767 48.9531 157.097 49.622C156.427 50.2909 155.519 50.6667 154.571 50.6667ZM154.571 64.9333C153.624 64.9333 152.716 64.5576 152.046 63.8887C151.376 63.2198 151 62.3126 151 61.3667C151 60.4207 151.376 59.5135 152.046 58.8446C152.716 58.1758 153.624 57.8 154.571 57.8C155.519 57.8 156.427 58.1758 157.097 58.8446C157.767 59.5135 158.143 60.4207 158.143 61.3667C158.143 62.3126 157.767 63.2198 157.097 63.8887C156.427 64.5576 155.519 64.9333 154.571 64.9333ZM154.571 79.2C153.624 79.2 152.716 78.8242 152.046 78.1553C151.376 77.4865 151 76.5793 151 75.6333C151 74.6874 151.376 73.7802 152.046 73.1113C152.716 72.4424 153.624 72.0667 154.571 72.0667C155.519 72.0667 156.427 72.4424 157.097 73.1113C157.767 73.7802 158.143 74.6874 158.143 75.6333C158.143 76.5793 157.767 77.4865 157.097 78.1553C156.427 78.8242 155.519 79.2 154.571 79.2ZM154.571 93.4667C153.624 93.4667 152.716 93.0909 152.046 92.422C151.376 91.7531 151 90.8459 151 89.9C151 88.9541 151.376 88.0469 152.046 87.378C152.716 86.7091 153.624 86.3333 154.571 86.3333C155.519 86.3333 156.427 86.7091 157.097 87.378C157.767 88.0469 158.143 88.9541 158.143 89.9C158.143 90.8459 157.767 91.7531 157.097 92.422C156.427 93.0909 155.519 93.4667 154.571 93.4667ZM154.571 107.733C153.624 107.733 152.716 107.358 152.046 106.689C151.376 106.02 151 105.113 151 104.167C151 103.221 151.376 102.314 152.046 101.645C152.716 100.976 153.624 100.6 154.571 100.6C155.519 100.6 156.427 100.976 157.097 101.645C157.767 102.314 158.143 103.221 158.143 104.167C158.143 105.113 157.767 106.02 157.097 106.689C156.427 107.358 155.519 107.733 154.571 107.733ZM154.571 122C153.624 122 152.716 121.624 152.046 120.955C151.376 120.286 151 119.379 151 118.433C151 117.487 151.376 116.58 152.046 115.911C152.716 115.242 153.624 114.867 154.571 114.867C155.519 114.867 156.427 115.242 157.097 115.911C157.767 116.58 158.143 117.487 158.143 118.433C158.143 119.379 157.767 120.286 157.097 120.955C156.427 121.624 155.519 122 154.571 122ZM186.714 93.4667C185.767 93.4667 184.859 93.0909 184.189 92.422C183.519 91.7531 183.143 90.8459 183.143 89.9V86.3333C183.143 85.3874 183.519 84.4802 184.189 83.8113C184.859 83.1424 185.767 82.7667 186.714 82.7667C187.661 82.7667 188.57 83.1424 189.24 83.8113C189.909 84.4802 190.286 85.3874 190.286 86.3333V89.9C190.286 90.8459 189.909 91.7531 189.24 92.422C188.57 93.0909 187.661 93.4667 186.714 93.4667ZM186.714 111.3C185.767 111.3 184.859 110.924 184.189 110.255C183.519 109.586 183.143 108.679 183.143 107.733V104.167C183.143 103.221 183.519 102.314 184.189 101.645C184.859 100.976 185.767 100.6 186.714 100.6C187.661 100.6 188.57 100.976 189.24 101.645C189.909 102.314 190.286 103.221 190.286 104.167V107.733C190.286 108.679 189.909 109.586 189.24 110.255C188.57 110.924 187.661 111.3 186.714 111.3Z" fill="#DBDBDB"/>
<path d="M3.6 137H212.4C213.355 137 214.27 136.62 214.946 135.944C215.621 135.268 216 134.351 216 133.395V3.60526C216 2.64909 215.621 1.73208 214.946 1.05596C214.27 0.37984 213.355 0 212.4 0H3.6C2.64522 0 1.72955 0.37984 1.05442 1.05596C0.379284 1.73208 0 2.64909 0 3.60526V133.395C0 134.351 0.379284 135.268 1.05442 135.944C1.72955 136.62 2.64522 137 3.6 137ZM208.8 129.789H144V7.21053H208.8V129.789ZM7.2 7.21053H136.8V129.789H7.2V7.21053Z" fill="black"/>
<path d="M72 25C63.4954 25 55.1818 27.5512 48.1105 32.3311C41.0392 37.1109 35.5278 43.9047 32.2732 51.8533C29.0186 59.8018 28.1671 68.5482 29.8263 76.9864C31.4854 85.4246 35.5808 93.1755 41.5944 99.2591C47.6081 105.343 55.2699 109.486 63.6111 111.164C71.9523 112.843 80.5982 111.981 88.4554 108.689C96.3126 105.396 103.028 99.8208 107.753 92.6673C112.478 85.5138 115 77.1035 115 68.5C114.988 56.9669 110.453 45.9098 102.392 37.7546C94.3306 29.5995 83.4005 25.0125 72 25ZM94.618 86.2625C98.541 81.1921 100.672 74.9388 100.672 68.5C100.672 62.0612 98.541 55.8079 94.618 50.7375L99.7278 45.5682C104.969 52.0315 107.834 60.1329 107.834 68.4927C107.834 76.8526 104.969 84.9539 99.7278 91.4172L94.618 86.2625ZM50.5 68.5C50.5002 63.9867 51.8974 59.5867 54.4954 55.9176L59.6984 61.1811C58.3696 63.3857 57.6666 65.9179 57.6666 68.5C57.6666 71.0821 58.3696 73.6143 59.6984 75.8189L54.4954 81.0824C51.8974 77.4133 50.5002 73.0133 50.5 68.5ZM64.8333 68.5C64.8333 67.0661 65.2537 65.6644 66.0411 64.4721C66.8286 63.2798 67.9479 62.3506 69.2574 61.8019C70.567 61.2531 72.008 61.1096 73.3982 61.3893C74.7884 61.669 76.0653 62.3595 77.0676 63.3735C78.0699 64.3874 78.7524 65.6792 79.029 67.0856C79.3055 68.4919 79.1636 69.9497 78.6211 71.2744C78.0787 72.5992 77.1602 73.7315 75.9816 74.5281C74.803 75.3248 73.4174 75.75 72 75.75C70.0993 75.75 68.2764 74.9862 66.9324 73.6265C65.5884 72.2669 64.8333 70.4228 64.8333 68.5ZM79.2348 56.0554C77.0555 54.711 74.5524 53.9999 72 53.9999C69.4476 53.9999 66.9445 54.711 64.7653 56.0554L59.5623 50.7919C63.1891 48.1634 67.5385 46.7499 72 46.7499C76.4615 46.7499 80.811 48.1634 84.4378 50.7919L79.2348 56.0554ZM64.7653 80.9446C66.9445 82.2889 69.4476 83.0001 72 83.0001C74.5524 83.0001 77.0555 82.2889 79.2348 80.9446L84.4378 86.2081C80.811 88.8366 76.4615 90.2501 72 90.2501C67.5385 90.2501 63.1891 88.8366 59.5623 86.2081L64.7653 80.9446ZM84.3016 75.8189C85.6305 73.6143 86.3335 71.0821 86.3335 68.5C86.3335 65.9179 85.6305 63.3857 84.3016 61.1811L89.5046 55.9176C92.1029 59.5866 93.5001 63.9866 93.5001 68.5C93.5001 73.0133 92.1029 77.4134 89.5046 81.0824L84.3016 75.8189ZM94.661 40.4497L89.5583 45.619C84.5463 41.6504 78.3648 39.4942 72 39.4942C65.6352 39.4942 59.4538 41.6504 54.4417 45.619L49.3318 40.4497C55.7209 35.1476 63.7291 32.2498 71.9928 32.2498C80.2566 32.2498 88.2648 35.1476 94.6538 40.4497H94.661ZM44.2722 45.5755L49.382 50.7375C45.4591 55.8079 43.3276 62.0612 43.3276 68.5C43.3276 74.9388 45.4591 81.1921 49.382 86.2625L44.2722 91.4317C39.031 84.9684 36.1665 76.8671 36.1665 68.5072C36.1665 60.1474 39.031 52.046 44.2722 45.5827V45.5755ZM49.339 96.5502L54.4417 91.381C59.4538 95.3496 65.6352 97.5058 72 97.5058C78.3648 97.5058 84.5463 95.3496 89.5583 91.381L94.6682 96.5502C88.2792 101.852 80.2709 104.75 72.0072 104.75C63.7434 104.75 55.7352 101.852 49.3462 96.5502H49.339Z" fill="black"/>
<path d="M119.067 36.7486L124.913 31.0078C125.915 30.023 126.71 28.8538 127.252 27.567C127.795 26.2803 128.074 24.9011 128.074 23.5083C128.074 22.1154 127.795 20.7363 127.252 19.4495C126.71 18.1627 125.915 16.9935 124.913 16.0087C122.856 14.0786 120.122 13.0016 117.279 13.0016C114.436 13.0016 111.701 14.0786 109.645 16.0087L103.803 21.7531C94.2689 15.3976 83.013 12 71.4919 12C59.9709 12 48.715 15.3976 39.1806 21.7531L33.3385 16.0087C32.3363 15.0239 31.1465 14.2427 29.837 13.7097C28.5275 13.1767 27.1241 12.9023 25.7067 12.9023C24.2894 12.9023 22.8859 13.1767 21.5764 13.7097C20.267 14.2427 19.0772 15.0239 18.075 16.0087C17.0727 16.9936 16.2777 18.1628 15.7353 19.4495C15.1929 20.7363 14.9138 22.1155 14.9138 23.5083C14.9138 24.901 15.1929 26.2802 15.7353 27.567C16.2777 28.8537 17.0727 30.0229 18.075 31.0078L23.9206 36.7486C17.4558 46.1188 14 57.1793 14 68.5C14 79.8207 17.4558 90.8812 23.9206 100.251L18.0785 105.992C17.0762 106.977 16.2811 108.146 15.7387 109.433C15.1962 110.72 14.917 112.099 14.917 113.492C14.917 114.885 15.1962 116.264 15.7387 117.551C16.2811 118.837 17.0762 120.006 18.0785 120.991C20.1346 122.921 22.8687 123.998 25.7121 123.998C28.5556 123.998 31.2896 122.921 33.3457 120.991L39.1878 115.247C48.7222 121.602 59.9781 125 71.4991 125C83.0202 125 94.2761 121.602 103.81 115.247L109.653 120.991C111.708 122.921 114.442 123.998 117.284 123.998C120.127 123.998 122.861 122.921 124.916 120.991C125.918 120.006 126.714 118.837 127.256 117.551C127.798 116.264 128.078 114.885 128.078 113.492C128.078 112.099 127.798 110.72 127.256 109.433C126.714 108.146 125.918 106.977 124.916 105.992L119.07 100.251C125.535 90.8808 128.99 79.8202 128.989 68.4995C128.989 57.1787 125.532 46.1185 119.067 36.7486ZM111.815 103.122L119.826 110.994C120.5 111.657 120.879 112.556 120.879 113.494C120.879 114.431 120.5 115.33 119.826 115.993C119.141 116.636 118.23 116.995 117.283 116.995C116.335 116.995 115.424 116.636 114.739 115.993L106.728 108.12C106.112 107.515 105.293 107.151 104.423 107.094C103.554 107.037 102.693 107.293 102.001 107.813C93.2344 114.377 82.5174 117.933 71.4955 117.933C60.4737 117.933 49.7566 114.377 40.99 107.813C40.2978 107.293 39.4371 107.037 38.5678 107.094C37.6985 107.151 36.8795 107.515 36.2631 108.12L28.2518 115.993C27.567 116.636 26.656 116.995 25.7085 116.995C24.761 116.995 23.85 116.636 23.1652 115.993C22.4908 115.33 22.1119 114.431 22.1119 113.494C22.1119 112.556 22.4908 111.657 23.1652 110.994L31.1765 103.122C31.7922 102.516 32.1633 101.711 32.2209 100.857C32.2784 100.003 32.0185 99.157 31.4895 98.4768C24.8108 89.8614 21.1939 79.3304 21.1939 68.5C21.1939 57.6696 24.8108 47.1386 31.4895 38.5232C32.0185 37.843 32.2784 36.9972 32.2209 36.1429C32.1633 35.2886 31.7922 34.4839 31.1765 33.8782L23.1652 26.0057C22.4908 25.3428 22.1119 24.4438 22.1119 23.5065C22.1119 22.5691 22.4908 21.6702 23.1652 21.0072C23.8398 20.3445 24.7546 19.9722 25.7085 19.9722C26.6624 19.9722 27.5772 20.3445 28.2518 21.0072L36.2631 28.8797C36.8795 29.4848 37.6985 29.8494 38.5678 29.906C39.4371 29.9626 40.2978 29.7072 40.99 29.1872C49.7574 22.6243 60.4742 19.0701 71.4955 19.0701C82.5169 19.0701 93.2337 22.6243 102.001 29.1872C102.693 29.7072 103.554 29.9626 104.423 29.906C105.293 29.8494 106.112 29.4848 106.728 28.8797L114.739 21.0072C115.424 20.3638 116.335 20.0046 117.283 20.0046C118.23 20.0046 119.141 20.3638 119.826 21.0072C120.5 21.6702 120.879 22.5691 120.879 23.5065C120.879 24.4438 120.5 25.3428 119.826 26.0057L111.815 33.8782C111.199 34.4839 110.828 35.2886 110.77 36.1429C110.713 36.9972 110.973 37.843 111.502 38.5232C118.18 47.1386 121.797 57.6696 121.797 68.5C121.797 79.3304 118.18 89.8614 111.502 98.4768C110.973 99.157 110.713 100.003 110.77 100.857C110.828 101.711 111.199 102.516 111.815 103.122ZM176.873 120.489C177.547 121.152 178.462 121.525 179.416 121.525H197.403C198.357 121.525 199.272 121.153 199.946 120.49C200.621 119.827 201 118.928 201 117.99V75.57C201 74.6325 200.621 73.7333 199.946 73.0704C199.272 72.4074 198.357 72.035 197.403 72.035H179.416C178.462 72.0352 177.547 72.4078 176.873 73.0708L166.081 83.6758C165.406 84.3385 165.027 85.2375 165.027 86.175V107.385C165.027 108.322 165.406 109.221 166.081 109.884L176.873 120.489ZM172.221 87.6385L180.905 79.105H193.805V114.455H180.905L172.221 105.922V87.6385ZM168.624 64.965H197.403C198.357 64.965 199.272 64.5926 199.946 63.9296C200.621 63.2667 201 62.3675 201 61.43V47.29C201 46.3524 200.621 45.4533 199.946 44.7904C199.272 44.1274 198.357 43.755 197.403 43.755H168.624C167.67 43.755 166.755 44.1274 166.08 44.7904C165.406 45.4533 165.027 46.3524 165.027 47.29V61.43C165.027 62.3675 165.406 63.2667 166.08 63.9296C166.755 64.5926 167.67 64.965 168.624 64.965ZM193.805 57.895H186.611V54.36V50.825H193.805V57.895ZM172.221 50.825H179.416V57.895H172.221V50.825Z" fill="black"/>
<path d="M154.5 22C156.433 22 158 20.433 158 18.5C158 16.567 156.433 15 154.5 15C152.567 15 151 16.567 151 18.5C151 20.433 152.567 22 154.5 22Z" fill="black"/>
<path d="M154.5 36C156.433 36 158 34.433 158 32.5C158 30.567 156.433 29 154.5 29C152.567 29 151 30.567 151 32.5C151 34.433 152.567 36 154.5 36Z" fill="black"/>
<path d="M168.5 22C170.433 22 172 20.433 172 18.5C172 16.567 170.433 15 168.5 15C166.567 15 165 16.567 165 18.5C165 20.433 166.567 22 168.5 22Z" fill="black"/>
<path d="M168.5 36C170.433 36 172 34.433 172 32.5C172 30.567 170.433 29 168.5 29C166.567 29 165 30.567 165 32.5C165 34.433 166.567 36 168.5 36Z" fill="black"/>
<path d="M183.5 22C185.433 22 187 20.433 187 18.5C187 16.567 185.433 15 183.5 15C181.567 15 180 16.567 180 18.5C180 20.433 181.567 22 183.5 22Z" fill="black"/>
<path d="M183.5 36C185.433 36 187 34.433 187 32.5C187 30.567 185.433 29 183.5 29C181.567 29 180 30.567 180 32.5C180 34.433 181.567 36 183.5 36Z" fill="black"/>
<path d="M197.5 22C199.433 22 201 20.433 201 18.5C201 16.567 199.433 15 197.5 15C195.567 15 194 16.567 194 18.5C194 20.433 195.567 22 197.5 22Z" fill="black"/>
<path d="M197.5 36C199.433 36 201 34.433 201 32.5C201 30.567 199.433 29 197.5 29C195.567 29 194 30.567 194 32.5C194 34.433 195.567 36 197.5 36Z" fill="black"/>
<path d="M154.5 51C156.433 51 158 49.2091 158 47C158 44.7909 156.433 43 154.5 43C152.567 43 151 44.7909 151 47C151 49.2091 152.567 51 154.5 51Z" fill="black"/>
<path d="M154.5 65C156.433 65 158 63.433 158 61.5C158 59.567 156.433 58 154.5 58C152.567 58 151 59.567 151 61.5C151 63.433 152.567 65 154.5 65Z" fill="black"/>
<path d="M154.5 79C156.433 79 158 77.433 158 75.5C158 73.567 156.433 72 154.5 72C152.567 72 151 73.567 151 75.5C151 77.433 152.567 79 154.5 79Z" fill="black"/>
<path d="M154.5 94C156.433 94 158 92.2091 158 90C158 87.7909 156.433 86 154.5 86C152.567 86 151 87.7909 151 90C151 92.2091 152.567 94 154.5 94Z" fill="black"/>
<path d="M154.5 108C156.433 108 158 106.433 158 104.5C158 102.567 156.433 101 154.5 101C152.567 101 151 102.567 151 104.5C151 106.433 152.567 108 154.5 108Z" fill="black"/>
<path d="M154.5 122C156.433 122 158 120.433 158 118.5C158 116.567 156.433 115 154.5 115C152.567 115 151 116.567 151 118.5C151 120.433 152.567 122 154.5 122Z" fill="black"/>
<path d="M186.5 93.875C187.428 93.875 188.318 93.4931 188.975 92.8133C189.631 92.1334 190 91.2114 190 90.25V86.625C190 85.6636 189.631 84.7416 188.975 84.0617C188.318 83.3819 187.428 83 186.5 83C185.572 83 184.682 83.3819 184.025 84.0617C183.369 84.7416 183 85.6636 183 86.625V90.25C183 91.2114 183.369 92.1334 184.025 92.8133C184.682 93.4931 185.572 93.875 186.5 93.875ZM186.5 112C187.428 112 188.318 111.618 188.975 110.938C189.631 110.258 190 109.336 190 108.375V104.75C190 103.789 189.631 102.867 188.975 102.187C188.318 101.507 187.428 101.125 186.5 101.125C185.572 101.125 184.682 101.507 184.025 102.187C183.369 102.867 183 103.789 183 104.75V108.375C183 109.336 183.369 110.258 184.025 110.938C184.682 111.618 185.572 112 186.5 112Z" fill="black"/>
</svg>
