<svg width="28" height="28" viewBox="0 0 28 28" fill="none" xmlns="http://www.w3.org/2000/svg">
<path d="M23.025 27.75C22.05 27.75 21.275 26.975 21.275 26C21.275 25.025 22.05 24.25 23.025 24.25C24 24.25 24.775 25.025 24.775 26C24.775 26.975 23.975 27.75 23.025 27.75ZM9.025 27.75C8.05 27.75 7.275 26.975 7.275 26C7.275 25.025 8.05 24.25 9.025 24.25C10 24.25 10.775 25.025 10.775 26C10.775 26.975 9.975 27.75 9.025 27.75ZM8.75 22.75C7.425 22.75 6.275 21.7 6.125 20.375L4.425 8.425L3.45 2.85C3.375 2.25 2.85 1.75 2.275 1.75H1C0.575 1.75 0.25 1.425 0.25 1C0.25 0.575 0.575 0.25 1 0.25H2.275C3.6 0.25 4.775 1.3 4.95 2.625L5.925 8.2L7.625 20.175C7.675 20.75 8.2 21.25 8.75 21.25H25C25.425 21.25 25.75 21.575 25.75 22C25.75 22.425 25.425 22.75 25 22.75H8.75ZM10 18.75C9.6 18.75 9.275 18.45 9.25 18.05C9.225 17.85 9.3 17.65 9.425 17.5C9.55 17.35 9.75 17.25 9.925 17.25L23.5 16.25C24.1 16.25 24.625 15.775 24.7 15.2L26.275 6.2C26.325 5.775 26.2 5.325 25.95 5.05C25.775 4.85 25.55 4.75 25.275 4.75H8C7.575 4.75 7.25 4.425 7.25 4C7.25 3.575 7.575 3.25 8 3.25H25.325C26.025 3.25 26.65 3.55 27.125 4.05C27.65 4.65 27.9 5.525 27.8 6.4L26.225 15.4C26.075 16.7 24.9 17.725 23.6 17.725L10.1 18.725C10.05 18.75 10.025 18.75 10 18.75Z" fill="black"/>
</svg>
