<svg width="187" height="187" viewBox="0 0 187 187" fill="none" xmlns="http://www.w3.org/2000/svg">
<path d="M6.41274 0.218522C2.99747 0.230957 0.232231 2.99744 0.218552 6.41271V43.7359C0.206114 47.1702 2.97851 49.9649 6.41274 49.9787V137.014C2.97851 137.026 0.205491 139.822 0.218552 143.256V180.531C0.206114 183.965 2.97851 186.76 6.41274 186.774H43.736C47.1892 186.786 49.9919 183.984 49.9787 180.531C80.1103 180.775 106.803 180.962 137.014 180.531C137.001 183.984 139.803 186.787 143.256 186.774H180.531C183.984 186.786 186.787 183.984 186.774 180.531V143.256C186.786 139.803 183.984 137 180.531 137.014V49.9787C183.984 49.9911 186.787 47.1892 186.774 43.7359V6.41271C186.761 2.97848 183.965 0.2054 180.531 0.218522H143.256C139.822 0.206084 137.027 2.97848 137.014 6.41271H49.9787C49.9663 2.97848 47.1702 0.205461 43.736 0.218522H6.41274ZM12.6556 12.6555H37.5417C37.5479 16.0756 40.3159 18.8482 43.736 18.8619H143.256C146.676 18.8495 149.444 16.0756 149.451 12.6555H174.337V37.5417C170.902 37.5292 168.108 40.3016 168.094 43.7359V143.256C168.106 146.691 170.902 149.464 174.337 149.451V174.337H149.451C149.438 170.869 146.59 168.082 143.123 168.142C107.981 168.748 79.0362 168.371 43.7845 168.093C40.3313 168.08 37.5285 170.882 37.5417 174.335H12.6556V149.449C16.0756 149.443 18.8483 146.675 18.8619 143.255V43.7347C18.8495 40.3147 16.0756 37.5475 12.6556 37.5405V12.6555ZM31.3111 25.0682C27.8529 25.0558 25.048 27.8651 25.0683 31.3232C25.0807 34.7576 27.8767 37.5309 31.3111 37.5174C34.7265 37.505 37.492 34.7386 37.5053 31.3232C37.5239 27.884 34.7502 25.0816 31.3111 25.0682ZM155.693 25.0682C152.235 25.0558 149.43 27.8651 149.451 31.3232C149.463 34.7576 152.259 37.5309 155.693 37.5174C159.109 37.505 161.874 34.7386 161.888 31.3232C161.906 27.884 159.133 25.0816 155.693 25.0682ZM93.4961 25.1056C55.7916 25.1056 25.1047 55.7925 25.1047 93.497C25.1047 131.202 55.7916 161.901 93.4961 161.901C131.201 161.901 161.9 131.202 161.9 93.497C161.9 55.7925 131.201 25.1056 93.4961 25.1056ZM99.6903 37.8826C125.689 40.7264 146.244 61.2619 149.11 87.2541C136.422 87.2541 123.734 87.2541 111.046 87.2541C110.828 86.646 110.571 86.0468 110.293 85.4688L128.657 67.1048C131.068 64.6792 131.068 60.7612 128.657 58.3357C121.037 50.7158 110.932 45.533 99.6903 44.1255V37.8826ZM67.1039 58.3357C64.6731 55.8947 60.7171 55.8947 58.2863 58.3357C50.6797 65.9423 45.5327 76.0363 44.1246 87.2542H37.8939C40.7583 61.2784 61.2776 40.7591 87.2533 37.8948C87.253 50.5712 87.2533 63.2302 87.2533 75.9102C86.6364 76.1328 86.0294 76.3915 85.4437 76.6754L67.1039 58.3357ZM99.6903 58.7486C104.867 59.7409 109.524 61.6369 113.694 64.5298L101.549 76.6754C100.945 76.3818 100.327 76.1138 99.6903 75.8859V58.7486ZM64.529 73.3475L76.6624 85.4687C76.3832 86.047 76.1289 86.6459 75.9094 87.2541H58.7478C59.7403 82.1082 61.657 77.4976 64.529 73.3475ZM93.4961 87.2541C97.0042 87.2541 99.6903 89.9889 99.6903 93.4969C99.6903 97.005 97.0042 99.6911 93.4961 99.6911C89.9881 99.6911 87.2533 97.005 87.2533 93.4969C87.2533 89.9889 89.9881 87.2541 93.4961 87.2541ZM37.8818 99.6911H75.8851C76.1103 100.319 76.3733 100.929 76.6624 101.525L58.2863 119.889C55.8758 122.315 55.8758 126.233 58.2863 128.658C65.8954 136.267 76.0208 141.452 87.2533 142.868V149.111C61.2611 146.245 40.7256 125.69 37.8818 99.6911ZM111.071 99.6911H128.244C127.252 104.868 125.356 109.525 122.463 113.695L110.293 101.525C110.581 100.929 110.847 100.319 111.071 99.6911ZM142.868 99.6911H149.123C146.277 125.707 125.706 146.278 99.6903 149.123C99.6921 136.427 99.6903 123.785 99.6903 111.071C100.318 110.847 100.929 110.581 101.524 110.294L119.888 128.658C122.314 131.069 126.232 131.069 128.657 128.658C136.277 121.038 141.46 110.933 142.868 99.6911ZM85.4679 110.294C86.0462 110.572 86.6451 110.829 87.2533 111.047V128.245C82.0929 127.25 77.4566 125.349 73.2981 122.464L85.4679 110.294ZM31.3111 149.451C27.8529 149.439 25.048 152.248 25.0683 155.706C25.0807 159.141 27.8767 161.914 31.3111 161.9C34.7265 161.888 37.492 159.122 37.5053 155.706C37.5239 152.267 34.7502 149.465 31.3111 149.451ZM155.693 149.451C152.235 149.439 149.43 152.248 149.451 155.706C149.463 159.141 152.259 161.914 155.693 161.9C159.109 161.888 161.874 159.122 161.888 155.706C161.906 152.267 159.132 149.465 155.693 149.451Z" fill="black"/>
</svg>
