<svg width="187" height="187" viewBox="0 0 187 187" fill="none" xmlns="http://www.w3.org/2000/svg">
<path fill-rule="evenodd" clip-rule="evenodd" d="M30.9629 19.5705H52.9276V6.09886C52.9276 2.73094 55.6585 0 59.0264 0C62.3943 0 65.1253 2.73094 65.1253 6.09886V19.5705H75.91V6.09886C75.91 2.73094 78.6409 0 82.0088 0C85.3767 0 88.1077 2.73094 88.1077 6.09886V19.5705H98.885V6.09886C98.885 2.73094 101.623 0 104.991 0C108.359 0 111.09 2.73094 111.09 6.09886V19.5705H121.867V6.09886C121.867 2.73094 124.598 0 127.974 0C131.341 0 134.072 2.73094 134.072 6.09886V19.5705H156.037C162.473 19.5705 167.73 24.8274 167.73 31.2631V52.9276H180.901C184.262 52.9276 186.993 55.6365 186.993 59.0264H187C187 62.3943 184.269 65.1253 180.901 65.1253H167.73V75.91H180.901C184.269 75.91 187 78.6409 187 82.0088C187 85.3767 184.269 88.1077 180.901 88.1077H167.73V98.885H180.901C184.262 98.885 186.993 101.601 186.993 104.991H187C187 108.359 184.269 111.09 180.901 111.09H167.73V121.867H180.901C184.269 121.867 187 124.598 187 127.974C187 131.341 184.269 134.072 180.901 134.072H167.73V155.73C167.73 162.165 162.473 167.429 156.037 167.429H134.072V180.901C134.072 184.269 131.341 187 127.974 187C124.598 187 121.867 184.269 121.867 180.901V167.429H111.09V180.901C111.09 184.269 108.359 187 104.991 187C101.623 187 98.885 184.269 98.885 180.901V167.429H88.1077V180.901C88.1077 184.269 85.3767 187 82.0088 187C78.6409 187 75.91 184.269 75.91 180.901V167.429H65.1253V180.901C65.1253 184.269 62.3943 187 59.0264 187C55.6585 187 52.9276 184.269 52.9276 180.901V167.429H30.9629C24.5272 167.429 19.263 162.165 19.263 155.73V134.072H6.09886C2.73094 134.072 0 131.341 0 127.974H0.00732156C0.00732156 124.584 2.73094 121.867 6.09886 121.867H19.263V111.09H6.09886C2.73094 111.09 0 108.359 0 104.991C0 101.623 2.73094 98.885 6.09886 98.885H19.263V88.1077H6.09886C2.73094 88.1077 0 85.3767 0 82.0088H0.00732156C0.00732156 78.6189 2.73094 75.91 6.09886 75.91H19.263V65.1253H6.09886C2.73094 65.1253 0 62.3943 0 59.0264C0 55.6585 2.73094 52.9276 6.09886 52.9276H19.263V31.2631C19.263 24.8274 24.5272 19.5705 30.9629 19.5705ZM58.0087 19.5705H60.0441V6.09886C60.0441 5.19099 58.9459 4.74437 58.3089 5.38135C58.1259 5.56439 58.0087 5.81332 58.0087 6.09886V19.5705ZM80.9911 19.5705H83.0265V6.09886C83.0265 5.19099 81.9283 4.74437 81.2913 5.38135C81.1083 5.56439 80.9911 5.81332 80.9911 6.09886V19.5705ZM103.973 19.5705H106.009V6.09886C106.009 5.19099 104.911 4.74437 104.274 5.38135C104.083 5.56439 103.973 5.81332 103.973 6.09886V19.5705ZM126.956 19.5705H128.991V6.09886C128.991 5.19099 127.893 4.74437 127.249 5.38135C127.066 5.56439 126.956 5.81332 126.956 6.09886V19.5705ZM167.73 58.0087V60.0441H180.901C181.465 60.0441 181.919 59.5902 181.919 59.0264H181.926C181.926 58.4846 181.465 58.0087 180.901 58.0087H167.73ZM167.73 80.9911V83.0265H180.901C181.802 83.0265 182.256 81.9283 181.619 81.2913C181.436 81.1083 181.179 80.9911 180.901 80.9911H167.73ZM167.73 103.973V106.009H180.901C181.465 106.009 181.919 105.555 181.919 104.991H181.926C181.926 104.449 181.465 103.973 180.901 103.973H167.73ZM167.73 126.956V128.991H180.901C181.802 128.991 182.256 127.893 181.619 127.249C181.436 127.066 181.179 126.956 180.901 126.956H167.73ZM128.991 167.429H126.956V180.901C126.956 181.802 128.054 182.256 128.691 181.619C128.874 181.436 128.991 181.179 128.991 180.901V167.429ZM106.009 167.429H103.973V180.901C103.973 181.802 105.072 182.256 105.709 181.619C105.892 181.436 106.009 181.179 106.009 180.901V167.429ZM83.0265 167.429H80.9911V180.901C80.9911 181.802 82.0893 182.256 82.7263 181.619C82.9094 181.436 83.0265 181.179 83.0265 180.901V167.429ZM60.0441 167.429H58.0087V180.901C58.0087 181.802 59.107 182.256 59.7439 181.619C59.927 181.436 60.0441 181.179 60.0441 180.901V167.429ZM19.263 128.991V126.956H6.09886C5.52778 126.956 5.07384 127.424 5.07384 127.974H5.08116C5.08116 128.53 5.5351 128.991 6.09886 128.991H19.263ZM19.263 106.009V103.973H6.09886C5.19099 103.973 4.74437 105.072 5.38135 105.709C5.56439 105.892 5.81332 106.009 6.09886 106.009H19.263ZM19.263 83.0265V80.9911H6.09886C5.52778 80.9911 5.07384 81.467 5.07384 82.0088H5.08116C5.08116 82.5726 5.5351 83.0265 6.09886 83.0265H19.263ZM19.263 60.0441V58.0087H6.09886C5.19099 58.0087 4.74437 59.107 5.38135 59.7439C5.56439 59.927 5.81332 60.0441 6.09886 60.0441H19.263ZM110.958 81.2034V105.797C110.958 109.164 113.697 111.895 117.064 111.895H133.457C136.833 111.895 139.564 109.164 139.564 105.797V81.2034C139.564 77.8282 136.833 75.0973 133.457 75.0973C130.089 75.0973 127.359 77.8282 127.359 81.2034V99.6977H123.163V81.2034C123.163 77.8282 120.432 75.0973 117.064 75.0973C113.697 75.0973 110.958 77.8282 110.958 81.2034ZM116.347 80.4786C116.157 80.669 116.047 80.9179 116.047 81.2034V105.797C116.047 106.36 116.501 106.814 117.064 106.814H133.457C134.021 106.814 134.475 106.36 134.475 105.797V81.2034C134.475 80.2956 133.377 79.8416 132.74 80.4786C132.557 80.669 132.447 80.9179 132.447 81.2034V102.238C132.447 103.644 131.305 104.779 129.899 104.779H120.623C119.217 104.779 118.082 103.644 118.082 102.238V81.2034C118.082 80.2956 116.984 79.8416 116.347 80.4786ZM70.7556 99.6977H59.6414V87.3023H70.7556C74.1235 87.3023 76.8544 84.5714 76.8544 81.2034C76.8544 77.8282 74.1235 75.0973 70.7556 75.0973H53.5353C50.1673 75.0973 47.4364 77.8282 47.4364 81.2034V105.797C47.4364 109.164 50.1673 111.895 53.5353 111.895H70.7556C74.1235 111.895 76.8544 109.164 76.8544 105.797C76.8544 102.429 74.1235 99.6977 70.7556 99.6977ZM71.4731 105.079C71.29 104.896 71.0338 104.779 70.7556 104.779H57.0935C55.6951 104.779 54.553 103.644 54.553 102.238V84.7617C54.553 83.356 55.6951 82.2211 57.0935 82.2211H70.7556C71.6561 82.2211 72.1101 81.1229 71.4731 80.4786C71.29 80.2956 71.0338 80.1857 70.7556 80.1857H53.5353C52.9715 80.1857 52.5176 80.6397 52.5176 81.2034V105.797C52.5176 106.36 52.9715 106.814 53.5353 106.814H70.7556C71.6561 106.814 72.1101 105.716 71.4731 105.079ZM91.5049 105.797V99.6025C94.9387 99.6025 98.3725 99.6025 101.799 99.6025C105.174 99.6025 107.905 96.8716 107.905 93.4963V81.2034C107.905 77.8282 105.174 75.0973 101.799 75.0973H85.406C82.0381 75.0973 79.3072 77.8282 79.3072 81.2034V105.797C79.3072 109.164 82.0381 111.895 85.406 111.895C88.7739 111.895 91.5049 109.164 91.5049 105.797ZM86.1235 106.514C86.3066 106.331 86.4237 106.075 86.4237 105.797V97.0546C86.4237 95.6562 87.5585 94.514 88.9643 94.514H101.799C102.363 94.514 102.817 94.0601 102.817 93.4963V81.2034C102.817 80.6397 102.363 80.1857 101.799 80.1857H85.406C84.8423 80.1857 84.3883 80.6397 84.3883 81.2034V105.797C84.3883 106.704 85.4865 107.151 86.1235 106.514ZM42.7213 32.991C37.2301 32.991 32.7493 37.4791 32.7493 42.9702V144.03C32.7493 149.521 37.2301 154.002 42.7213 154.002H144.279C149.77 154.002 154.251 149.521 154.251 144.03V42.9702C154.251 37.4791 149.77 32.991 144.279 32.991H42.7213ZM144.279 38.0794H42.7213C40.0343 38.0794 37.8305 40.2832 37.8305 42.9702V144.03C37.8305 146.717 40.0343 148.921 42.7213 148.921H144.279C146.958 148.921 149.169 146.717 149.169 144.03V42.9702C149.169 40.2832 146.958 38.0794 144.279 38.0794ZM156.037 24.659H30.9629C27.3314 24.659 24.3515 27.6389 24.3515 31.2631V155.73C24.3515 159.361 27.3314 162.341 30.9629 162.341H156.037C159.669 162.341 162.648 159.361 162.648 155.73V31.2631C162.648 27.6389 159.669 24.659 156.037 24.659Z" fill="black"/>
</svg>
