<svg width="160" height="256" viewBox="0 0 160 256" fill="none" xmlns="http://www.w3.org/2000/svg">
<path d="M136.563 16.3466V234.023C136.563 235.576 135.304 236.835 133.751 236.835H26.6002C25.0471 236.835 23.7877 235.576 23.7877 234.023L23.7877 16.3466C23.7877 7.5069 30.9793 0.315338 39.8189 0.315338H120.532C129.371 0.315338 136.563 7.5069 136.563 16.3466ZM130.938 231.21V16.3466C130.938 10.6085 126.27 5.94034 120.532 5.94034H39.8189C34.0809 5.94034 29.4127 10.6085 29.4127 16.3466L29.4127 231.21H130.938Z" fill="black"/>
<path d="M55.6826 143.626C54.9682 144.234 54.2819 144.875 53.6182 145.538C47.4875 151.669 43.4763 159.921 42.7901 169.107C42.7226 170.035 42.6888 170.974 42.6888 171.919C42.6888 181.212 46.0863 189.706 51.7057 196.236C52.3126 196.951 52.9544 197.636 53.6176 198.3C59.7489 204.437 68.0007 208.442 77.1864 209.128C78.1139 209.196 79.0533 209.23 79.9989 209.23C89.2919 209.23 97.7851 205.838 104.316 200.213C105.031 199.606 105.716 198.964 106.381 198.301C112.511 192.17 116.522 183.918 117.209 174.733C117.276 173.804 117.31 172.865 117.31 171.92C117.31 162.628 113.912 154.134 108.293 147.603C107.685 146.889 107.044 146.203 106.381 145.539C100.25 139.408 91.9981 135.397 82.8125 134.711C81.8844 134.644 80.945 134.609 79.9994 134.609C70.7069 134.609 62.2132 138.007 55.6826 143.626Z" fill="#D1D3D4"/>
<path d="M120.123 171.92C120.123 172.925 120.087 173.939 120.015 174.935C119.3 184.492 115.165 193.494 108.371 200.29C107.607 201.053 106.877 201.729 106.14 202.356C98.8904 208.599 89.603 212.043 79.9994 212.043C78.9914 212.043 77.9761 212.007 76.9827 211.934C67.4202 211.22 58.4174 207.084 51.6286 200.289C50.8681 199.529 50.192 198.798 49.5626 198.058C43.3199 190.804 39.8763 181.516 39.8763 171.92C39.8763 170.91 39.9123 169.895 39.9849 168.903C40.6987 159.348 44.8336 150.345 51.6292 143.55C52.388 142.791 53.1176 142.115 53.8601 141.484C61.1152 135.24 70.4026 131.797 79.9994 131.797C81.0041 131.797 82.0188 131.833 83.015 131.905C92.5724 132.62 101.575 136.755 108.37 143.55C109.128 144.309 109.803 145.038 110.435 145.781C116.679 153.037 120.123 162.324 120.123 171.92ZM45.5013 171.92C45.5013 180.171 48.4617 188.155 53.8376 194.402C54.3787 195.039 54.953 195.659 55.6066 196.312C61.4448 202.155 69.1831 205.71 77.3962 206.324C78.2501 206.387 79.127 206.418 79.9994 206.418C88.2558 206.418 96.2405 203.458 102.482 198.082C103.117 197.542 103.737 196.966 104.393 196.311C110.235 190.468 113.791 182.73 114.405 174.523C114.467 173.668 114.498 172.79 114.498 171.92C114.498 163.67 111.537 155.685 106.161 149.437C105.617 148.798 105.042 148.177 104.392 147.527C98.549 141.684 90.8107 138.128 82.6027 137.515C81.7477 137.453 80.8696 137.422 79.9994 137.422C71.7487 137.422 63.7646 140.382 57.5169 145.758C56.8779 146.301 56.2574 146.876 55.6066 147.527C49.7628 153.371 46.2072 161.109 45.5941 169.317C45.5328 170.168 45.5013 171.045 45.5013 171.92Z" fill="black"/>
<path d="M84.8032 167.116C85.5176 167.825 86.0688 168.691 86.4125 169.664C86.6594 170.367 86.795 171.127 86.795 171.92C86.795 172.972 86.5587 173.967 86.1312 174.856C85.7926 175.554 85.3488 176.184 84.8032 176.724C84.0944 177.438 83.2288 177.989 82.2556 178.332C81.5525 178.579 80.7931 178.715 79.9994 178.715C78.9476 178.715 77.9514 178.479 77.0626 178.051C76.3657 177.713 75.7357 177.269 75.1957 176.724C74.4807 176.014 73.9301 175.149 73.5869 174.176C73.34 173.472 73.2044 172.713 73.2044 171.92C73.2044 170.868 73.4407 169.872 73.8682 168.984C74.2062 168.286 74.6506 167.656 75.1957 167.116C75.9044 166.402 76.7707 165.851 77.7438 165.507C78.4469 165.261 79.2063 165.125 79.9994 165.125C81.0513 165.125 82.0469 165.361 82.9357 165.789C83.6332 166.126 84.2637 166.571 84.8032 167.116Z" fill="#808285"/>
<path d="M89.6075 171.92C89.6075 173.378 89.2908 174.776 88.6659 176.075C88.1799 177.078 87.5471 177.966 86.7804 178.723C85.778 179.734 84.5636 180.501 83.1894 180.985C82.1679 181.345 81.0941 181.527 79.9989 181.527C78.5397 181.527 77.1414 181.21 75.842 180.585C74.8447 180.102 73.9554 179.47 73.196 178.702C72.1846 177.699 71.4179 176.484 70.9336 175.11C70.5736 174.087 70.3914 173.013 70.3914 171.919C70.3914 170.461 70.7081 169.063 71.3336 167.764C71.8162 166.765 72.449 165.876 73.2168 165.117C74.2197 164.106 75.4342 163.338 76.8084 162.854C77.8327 162.494 78.9059 162.312 79.9994 162.312C81.4574 162.312 82.8552 162.629 84.1546 163.253C85.1559 163.738 86.0446 164.371 86.8029 165.138C87.812 166.139 88.5792 167.353 89.0647 168.727C89.4252 169.754 89.6075 170.826 89.6075 171.92ZM76.0169 171.92C76.0169 172.377 76.0917 172.821 76.2397 173.242C76.4388 173.809 76.7549 174.309 77.1768 174.728C77.5031 175.057 77.8704 175.317 78.2877 175.519C78.8148 175.773 79.3919 175.903 79.9994 175.903C80.4562 175.903 80.9011 175.828 81.3213 175.68C81.8889 175.481 82.3884 175.165 82.8074 174.743C83.1371 174.416 83.3981 174.048 83.6011 173.629C84.0427 172.712 84.1046 171.58 83.7597 170.598C83.5601 170.033 83.2439 169.532 82.8226 169.114C82.4958 168.783 82.1279 168.523 81.71 168.321C81.1841 168.068 80.6064 167.938 79.9994 167.938C79.5427 167.938 79.0977 168.013 78.6764 168.161C78.1106 168.36 77.6099 168.676 77.1909 169.098C76.8618 169.424 76.6008 169.792 76.3994 170.209C76.1463 170.735 76.0169 171.313 76.0169 171.92Z" fill="black"/>
<path d="M117.311 171.92V177.545H117.209C110.449 177.526 106.872 175.909 103.716 174.482C100.676 173.107 98.0501 171.92 92.4363 171.92C90.3877 171.92 88.604 172.083 86.9829 172.419L85.8427 166.91C87.8441 166.496 90.0007 166.295 92.4369 166.295C99.2628 166.295 102.86 167.922 106.034 169.357C109.058 170.724 111.67 171.905 117.218 171.92H117.311ZM74.1567 176.93C72.1548 177.344 69.9982 177.545 67.562 177.545C60.7361 177.545 57.1389 175.918 53.9647 174.483C50.9412 173.116 48.3296 171.935 42.7816 171.92H42.6882V166.295H42.7895C49.5496 166.314 53.1266 167.931 56.2822 169.358C59.3225 170.733 61.9488 171.92 67.562 171.92C69.6106 171.92 71.3943 171.757 73.0166 171.421L74.1567 176.93Z" fill="black"/>
<path d="M106.403 198.323L102.386 202.261L102.308 202.182C97.5612 197.411 96.1753 193.738 94.9529 190.497C93.7756 187.375 92.7592 184.68 88.7941 180.715C87.3406 179.262 85.9636 178.114 84.5838 177.205L87.6787 172.507C89.3797 173.628 91.0458 175.012 92.7716 176.737C97.5939 181.56 98.9872 185.253 100.216 188.511C101.387 191.616 102.399 194.298 106.311 198.23L106.403 198.323ZM75.4156 166.635L72.3213 171.333C70.6181 170.211 68.9519 168.827 67.2273 167.103C62.4011 162.279 61.0083 158.585 59.7798 155.325C58.6092 152.221 57.5984 149.54 53.6891 145.61L53.6058 145.526L57.6024 141.568L57.6716 141.638C62.4371 146.428 63.8219 150.101 65.0431 153.342C66.2199 156.463 67.2358 159.159 71.2042 163.125C72.6566 164.577 74.0347 165.725 75.4156 166.635Z" fill="black"/>
<path d="M85.625 184.356C85.625 191.182 83.9977 194.78 82.5633 197.954C81.1953 200.977 80.0146 203.589 79.9994 209.136V209.23H74.3744V209.128C74.3924 202.368 76.0102 198.792 77.4373 195.636C78.812 192.595 80 189.969 80 184.356C80 182.31 79.8369 180.525 79.5011 178.9L85.0096 177.763C85.4242 179.767 85.625 181.924 85.625 184.356ZM85.625 134.609V134.711C85.6064 141.471 83.9887 145.048 82.5622 148.204C81.1874 151.244 79.9994 153.87 79.9994 159.483C79.9994 161.532 80.1626 163.316 80.4984 164.938L74.9898 166.077C74.5758 164.077 74.3744 161.919 74.3744 159.483C74.3744 152.657 76.0012 149.06 77.4361 145.886C78.8036 142.862 79.9843 140.251 80 134.703V134.61H85.625V134.609Z" fill="black"/>
<path d="M79.4116 179.598C78.2911 181.3 76.9074 182.966 75.1816 184.692C70.3588 189.514 66.6654 190.908 63.4068 192.137C60.3018 193.308 57.6204 194.319 53.6891 198.23L53.6345 198.285L49.6183 194.346L49.7257 194.238C54.5069 189.481 58.1801 188.096 61.4212 186.874C64.5431 185.696 67.2386 184.679 71.2036 180.714C72.6566 179.261 73.8046 177.884 74.7131 176.504L79.4116 179.598ZM110.341 149.533L108.372 147.524L110.321 149.552L110.262 149.611C105.494 154.358 101.819 155.744 98.5777 156.967C95.4558 158.144 92.7592 159.161 88.7947 163.126C87.3429 164.578 86.1948 165.955 85.2841 167.336L80.5873 164.241C81.7094 162.538 83.0932 160.872 84.8178 159.148C89.6396 154.326 93.3341 152.933 96.5932 151.704C99.6987 150.533 102.38 149.521 106.309 145.61L106.403 145.516L110.341 149.533Z" fill="black"/>
<path d="M55.6831 36.9369C54.9682 37.5444 54.2825 38.1856 53.6187 38.8488C47.4875 44.9801 43.4769 53.232 42.7906 62.4176C42.7231 63.3457 42.6888 64.2851 42.6888 65.2301C42.6888 74.5226 46.0863 83.0163 51.7057 89.547C52.3132 90.2613 52.9544 90.9476 53.6182 91.6113C59.7489 97.7482 68.0007 101.753 77.1864 102.439C78.1145 102.506 79.0539 102.541 79.9994 102.541C89.2919 102.541 97.7862 99.1488 104.316 93.5238C105.031 92.9169 105.717 92.2751 106.381 91.6119C112.512 85.4806 116.522 77.2288 117.209 68.0431C117.276 67.115 117.31 66.1756 117.31 65.2306C117.31 55.9381 113.913 47.4444 108.294 40.9138C107.686 40.1994 107.044 39.5137 106.381 38.8494C100.25 32.7187 91.9981 28.7081 82.8125 28.0213C81.8844 27.9543 80.945 27.92 80 27.92C70.7069 27.92 62.2132 31.3175 55.6831 36.9369Z" fill="#D1D3D4"/>
<path d="M120.123 65.2306C120.123 66.2353 120.087 67.2494 120.015 68.2456C119.3 77.8036 115.165 86.8059 108.37 93.6003C107.61 94.3614 106.88 95.0375 106.139 95.667C98.8921 101.91 89.6041 105.354 80 105.354C78.9948 105.354 77.9806 105.318 76.9844 105.246C67.4197 104.531 58.4174 100.395 51.6292 93.6003C50.8715 92.8432 50.1959 92.1131 49.5637 91.37C43.3205 84.1149 39.8763 74.8275 39.8763 65.2306C39.8763 64.2204 39.9129 63.2056 39.9849 62.214C40.6992 52.6588 44.8342 43.6565 51.6292 36.861C52.388 36.1021 53.1176 35.4266 53.8606 34.7949C61.1152 28.5517 70.4032 25.1075 80 25.1075C81.0046 25.1075 82.0188 25.1435 83.015 25.2155C92.5724 25.9305 101.575 30.0654 108.37 36.8598C109.133 37.6237 109.809 38.3533 110.436 39.0907C116.68 46.3464 120.123 55.6344 120.123 65.2306ZM45.5013 65.2306C45.5013 73.4814 48.4623 81.4655 53.8376 87.7138C54.3815 88.3528 54.9564 88.9732 55.6066 89.6234C61.4448 95.4667 69.1826 99.0217 77.3967 99.636C78.2517 99.6978 79.1292 99.7293 80 99.7293C88.2575 99.7293 96.2411 96.7689 102.482 91.3942C103.12 90.8514 103.74 90.2765 104.393 89.6246C110.235 83.7813 113.791 76.043 114.405 67.8345C114.467 66.9795 114.498 66.1019 114.498 65.2318C114.498 56.981 111.538 48.9963 106.162 42.7486C105.623 42.1147 105.048 41.4943 104.392 40.8384C98.5496 34.9963 90.8112 31.4407 82.6032 30.827C81.7482 30.7651 80.8708 30.7336 80.0006 30.7336C71.7498 30.7336 63.7651 33.6946 57.5174 39.0699C56.8784 39.6133 56.258 40.1881 55.6072 40.839C49.7639 46.6828 46.2084 54.4211 45.5952 62.6285C45.5334 63.479 45.5013 64.356 45.5013 65.2306Z" fill="black"/>
<path opacity="0.2" d="M79.9994 27.9459C80.9444 27.9459 81.8838 27.9796 82.8119 28.0471C91.9976 28.7334 100.249 32.744 106.381 38.8752C107.044 39.539 107.685 40.2253 108.293 40.9396C113.912 47.4703 117.309 55.964 117.309 65.2565C117.309 66.2015 117.276 67.1409 117.208 68.069C117.129 69.1265 117.006 70.1784 116.837 71.2072C115.729 64.2434 112.691 57.9271 108.293 52.814C107.685 52.0991 107.044 51.4134 106.381 50.7496C100.249 44.6184 91.9976 40.6077 82.8119 39.9215C81.8838 39.854 80.9444 39.8197 79.9994 39.8197C70.7069 39.8197 62.2132 43.2172 55.6831 48.8366C54.9682 49.4441 54.2825 50.0853 53.6182 50.7491C48.1957 56.1716 44.4269 63.2585 43.1613 71.1847C42.8463 69.2547 42.6888 67.2753 42.6888 65.2559C42.6888 64.3104 42.7231 63.371 42.7901 62.4434C43.4769 53.2578 47.4875 45.0059 53.6182 38.8747C54.2825 38.2109 54.9682 37.5697 55.6831 36.9622C62.2132 31.3434 70.7069 27.9459 79.9994 27.9459ZM79.9994 134.635C80.9444 134.635 81.8838 134.668 82.8119 134.736C91.9976 135.422 100.249 139.433 106.381 145.564C107.044 146.228 107.685 146.914 108.293 147.628C113.912 154.159 117.309 162.653 117.309 171.945C117.309 172.89 117.276 173.83 117.208 174.758C117.129 175.815 117.006 176.867 116.837 177.896C115.729 170.932 112.691 164.616 108.293 159.503C107.685 158.788 107.044 158.102 106.381 157.438C100.249 151.307 91.9976 147.297 82.8119 146.61C81.8838 146.543 80.9444 146.509 79.9994 146.509C70.7069 146.509 62.2132 149.906 55.6831 155.525C54.9682 156.133 54.2825 156.774 53.6182 157.438C48.1957 162.86 44.4269 169.947 43.1613 177.873C42.8463 175.944 42.6888 173.964 42.6888 171.945C42.6888 170.999 42.7231 170.06 42.7901 169.132C43.4769 159.947 47.4875 151.695 53.6182 145.563C54.2825 144.9 54.9682 144.259 55.6831 143.651C62.2132 138.032 70.7069 134.635 79.9994 134.635Z" fill="black"/>
<path d="M84.8043 60.4269C85.5187 61.1356 86.0699 62.0019 86.4125 62.975C86.6594 63.6781 86.795 64.4375 86.795 65.2306C86.795 66.2825 86.5587 67.2787 86.1312 68.1675C85.7937 68.8644 85.3488 69.4944 84.8043 70.0344C84.0956 70.7493 83.2288 71.3 82.2556 71.6431C81.5525 71.8901 80.7931 72.0256 80 72.0256C78.9476 72.0256 77.9519 71.7894 77.0632 71.3619C76.3657 71.0238 75.7357 70.5795 75.1957 70.0344C74.4813 69.3251 73.9301 68.4594 73.5875 67.4863C73.34 66.7831 73.2044 66.0238 73.2044 65.2306C73.2044 64.1788 73.4407 63.1831 73.8687 62.2944C74.2062 61.5969 74.6506 60.9669 75.1957 60.4269C75.905 59.7125 76.7707 59.1613 77.7438 58.8181C78.4469 58.5712 79.2069 58.4356 80 58.4356C81.0524 58.4356 82.0481 58.6719 82.9368 59.0994C83.6343 59.4369 84.2637 59.8813 84.8043 60.4269Z" fill="#808285"/>
<path d="M89.6075 65.2306C89.6075 66.6892 89.2908 68.087 88.6659 69.3864C88.1838 70.3837 87.5516 71.2725 86.7837 72.0324C85.7819 73.0432 84.5669 73.8104 83.1905 74.2953C82.1662 74.6559 81.0929 74.8381 79.9994 74.8381C78.5409 74.8381 77.1431 74.5215 75.8437 73.8965C74.8436 73.4122 73.9554 72.78 73.1966 72.0127C72.1852 71.0092 71.4179 69.7948 70.9342 68.4206C70.5736 67.3974 70.3914 66.3241 70.3914 65.2301C70.3914 63.7715 70.7081 62.3737 71.3336 61.0743C71.8167 60.0759 72.4496 59.1871 73.2168 58.4272C74.2203 57.4164 75.4342 56.6497 76.8084 56.1654C77.8333 55.8048 78.9059 55.6226 80 55.6226C81.4586 55.6226 82.8564 55.9393 84.1557 56.5642C85.1542 57.0474 86.0424 57.6796 86.8023 58.4469C87.8142 59.451 88.5815 60.666 89.0652 62.0407C89.4252 63.0645 89.6075 64.1371 89.6075 65.2306ZM76.0169 65.2306C76.0169 65.6874 76.0923 66.1323 76.2397 66.5525C76.4394 67.1195 76.7549 67.6196 77.1768 68.0386C77.5031 68.3683 77.8715 68.6293 78.2894 68.8312C78.8148 69.0838 79.3925 69.2137 80 69.2137C80.4567 69.2137 80.9017 69.1383 81.323 68.991C81.89 68.7913 82.3901 68.4757 82.8074 68.055C83.1382 67.727 83.3992 67.3591 83.6 66.9429C84.0432 66.0204 84.1046 64.8903 83.7597 63.9082C83.5606 63.3418 83.2451 62.8417 82.8237 62.4232C82.4964 62.0936 82.1279 61.8326 81.7111 61.6306C81.1852 61.3781 80.6075 61.2481 80 61.2481C79.5427 61.2481 79.0977 61.3235 78.6764 61.4709C78.1111 61.67 77.6099 61.9861 77.1914 62.408C76.8618 62.7343 76.6014 63.1021 76.4 63.5195C76.1469 64.046 76.0169 64.6237 76.0169 65.2306Z" fill="black"/>
<path d="M117.311 65.2306V70.8556H117.209C110.449 70.837 106.872 69.2198 103.717 67.7928C100.676 66.418 98.0506 65.2306 92.4374 65.2306C90.3877 65.2306 88.604 65.3937 86.9829 65.7295L85.8427 60.221C87.8441 59.807 90.0012 59.6056 92.438 59.6056C99.2634 59.6056 102.861 61.2323 106.035 62.6673C109.059 64.0347 111.67 65.2148 117.218 65.2306H117.311ZM74.1567 70.2402C72.1554 70.6542 69.9982 70.8556 67.5626 70.8556C60.7366 70.8556 57.1394 69.2288 53.9653 67.7939C50.9413 66.4265 48.3296 65.2458 42.7822 65.2306H42.6882V59.6056H42.7901C49.5502 59.6236 53.1271 61.2413 56.2827 62.6684C59.3231 64.0426 61.9488 65.2306 67.5626 65.2306C69.6112 65.2306 71.3949 65.0675 73.0166 64.7317L74.1567 70.2402Z" fill="black"/>
<path d="M106.355 91.5854L102.447 95.6304L102.357 95.5409C97.5618 90.722 96.1758 87.0483 94.9535 83.8077C93.7762 80.6864 92.7598 77.9904 88.7947 74.0253C87.3423 72.5735 85.9653 71.4254 84.5849 70.5164L87.6787 65.8184C89.3808 66.9395 91.0469 68.3227 92.7721 70.0484C97.5944 74.8707 98.9878 78.5641 100.217 81.8227C101.388 84.9282 102.4 87.6097 106.312 91.541L104.371 93.5784L106.355 91.5854ZM75.4156 59.9459L72.3213 64.6439C70.6186 63.5217 68.9525 62.1386 67.2279 60.4134C62.4016 55.5905 61.0083 51.8954 59.7798 48.6363C58.6098 45.5313 57.599 42.851 53.6891 38.9208L53.6058 38.8376L57.6024 34.8792L57.6716 34.949C62.4371 39.7392 63.8219 43.4118 65.0431 46.6524C66.2199 49.7742 67.2363 52.4703 71.2048 56.4359C72.6571 57.8877 74.0347 59.0358 75.4156 59.9459Z" fill="black"/>
<path d="M85.625 77.6675C85.625 84.4934 83.9983 88.0912 82.5633 91.2654C81.1959 94.2894 80.0152 96.9011 79.9994 102.448V102.542H74.3744V102.441C74.393 95.6804 76.0102 92.1035 77.4373 88.9479C78.812 85.9076 80 83.2812 80 77.6675C80 75.6166 79.8369 73.8329 79.5011 72.2146L85.0091 71.0733C85.4236 73.0707 85.625 75.2279 85.625 77.6675ZM85.625 27.92V28.0213C85.607 34.7819 83.9892 38.3589 82.5622 41.5145C81.1874 44.5548 79.9994 47.1806 79.9994 52.7937C79.9994 54.8429 80.1626 56.6266 80.4984 58.2477L74.9898 59.3879C74.5764 57.3866 74.3744 55.2294 74.3744 52.7932C74.3744 45.9678 76.0017 42.3706 77.4367 39.1964C78.8041 36.1724 79.9848 33.5607 80 28.0128V27.9194L85.625 27.92Z" fill="black"/>
<path d="M79.4116 72.9093C78.2906 74.6115 76.9074 76.2776 75.1816 78.0028C70.3593 82.8251 66.6659 84.2184 63.4074 85.4475C60.3024 86.6186 57.6209 87.6305 53.6891 91.5421L51.65 89.6032L53.6452 91.5854L51.6269 89.6268L49.6554 87.6209L49.7465 87.5309C54.5081 82.793 58.1812 81.407 61.4223 80.1847C64.5436 79.0074 67.2391 77.9909 71.2042 74.0259C72.6571 72.5729 73.8052 71.196 74.7142 69.8156L79.4116 72.9093ZM110.342 42.8426L110.335 42.8499C110.327 42.8583 110.286 42.8988 110.278 42.9073C105.494 47.6699 101.819 49.0554 98.5771 50.2783C95.4547 51.4556 92.7581 52.472 88.7936 56.4365C87.3423 57.8889 86.1943 59.2659 85.2841 60.6468L80.5873 57.552C81.7089 55.8498 83.0921 54.1837 84.8161 52.4591C89.6384 47.6368 93.3329 46.2434 96.5921 45.0144C99.6976 43.8433 102.38 42.8319 106.309 38.9203L106.396 38.8342L110.342 42.8426Z" fill="black"/>
<path d="M159.324 234.023V245.56C159.324 247.113 158.065 248.372 156.512 248.372H17.837V252.872C17.837 254.425 16.5781 255.685 15.0245 255.685H3.48763C1.93456 255.685 0.675125 254.425 0.675125 252.872L0.675125 234.023C0.675125 232.47 1.93456 231.21 3.48763 231.21H156.512C158.065 231.21 159.324 232.47 159.324 234.023ZM153.699 242.747V236.835H6.30069L6.30069 250.06H12.2126V245.56C12.2126 244.007 13.472 242.747 15.0251 242.747H153.699Z" fill="black"/>
<path d="M50.4007 245.56V252.872C50.4007 254.425 49.1418 255.685 47.5882 255.685H36.863C35.3099 255.685 34.0505 254.425 34.0505 252.872V245.56C34.0505 244.007 35.3099 242.747 36.863 242.747H47.5882C49.1418 242.747 50.4007 244.007 50.4007 245.56ZM44.7757 250.06V248.372H39.6755V250.06H44.7757Z" fill="black"/>
<path d="M69.3181 245.56V252.872C69.3181 254.425 68.0587 255.685 66.5056 255.685H55.7804C54.2268 255.685 52.9679 254.425 52.9679 252.872V245.56C52.9679 244.007 54.2268 242.747 55.7804 242.747H66.5056C68.0587 242.747 69.3181 244.007 69.3181 245.56ZM63.6931 250.06V248.372H58.5929V250.06H63.6931Z" fill="black"/>
<path d="M130.051 245.56V252.872C130.051 254.425 128.792 255.685 127.238 255.685H86.3073C84.7537 255.685 83.4948 254.425 83.4948 252.872V245.56C83.4948 244.007 84.7537 242.747 86.3073 242.747H127.238C128.791 242.747 130.051 244.007 130.051 245.56ZM124.426 250.06V248.372H89.1198V250.06H124.426Z" fill="black"/>
</svg>
