<svg width="30" height="27" viewBox="0 0 30 27" fill="none" xmlns="http://www.w3.org/2000/svg">
<path d="M16.6078 2.71433L16.6077 2.71442L15.3537 3.96942L15 4.32339L14.6463 3.96942L13.3923 2.71442L13.3922 2.71433C10.4436 -0.23806 5.6615 -0.238159 2.71176 2.71433L16.6078 2.71433ZM16.6078 2.71433C19.5565 -0.238059 24.3385 -0.238159 27.2883 2.71433C30.2326 5.66246 30.2372 10.4389 27.3024 13.3915L27.2957 13.3982M16.6078 2.71433L27.2957 13.3982M27.2957 13.3982L27.2894 13.4051M27.2957 13.3982L27.2894 13.4051M27.2894 13.4051L15.3674 26.339C15.3674 26.3391 15.3674 26.3391 15.3674 26.3391C15.273 26.4414 15.1393 26.5 15 26.5C14.8607 26.5 14.727 26.4414 14.6327 26.3391C14.6327 26.3391 14.6326 26.3391 14.6326 26.339L2.71067 13.4051L2.70429 13.3982M27.2894 13.4051L2.70429 13.3982M2.70429 13.3982L2.69765 13.3915M2.70429 13.3982L2.69765 13.3915M2.69765 13.3915C-0.237155 10.4389 -0.232615 5.66252 2.7117 2.71438L2.69765 13.3915ZM15.3677 24.8639L26.5597 12.7203L26.5666 12.7135L26.5805 12.6996L26.5808 12.6993C29.1397 10.1372 29.1398 5.98303 26.5809 3.42175C24.0225 0.859086 19.8735 0.859086 17.3152 3.42175L15.3545 5.3844C15.3544 5.38444 15.3544 5.38449 15.3543 5.38453C15.3543 5.38454 15.3543 5.38456 15.3543 5.38458C15.2605 5.47832 15.1329 5.53098 15 5.53098C14.8669 5.53098 14.7398 5.47814 14.6475 5.38534L14.6467 5.38448L12.6849 3.42175C10.1265 0.859086 5.9775 0.859086 3.41917 3.42175C0.860215 5.98303 0.860372 10.1372 3.41924 12.6993L3.41947 12.6995L3.43347 12.7135L3.44028 12.7204L14.6323 24.8639L15 25.2628L15.3677 24.8639Z" fill="black" stroke="black"/>
</svg>
