<svg width="153" height="77" viewBox="0 0 153 77" fill="none" xmlns="http://www.w3.org/2000/svg">
<path d="M28.9447 48.85L46.775 48.85C47.4215 48.85 48.0415 48.5932 48.4986 48.1361C48.9557 47.6789 49.2125 47.059 49.2125 46.4125L49.2125 17.4526C49.2125 16.8061 48.9557 16.1861 48.4986 15.729C48.0415 15.2719 47.4215 15.0151 46.775 15.0151L28.9447 15.0151C28.2982 15.0151 27.6782 15.2719 27.2211 15.729C26.764 16.1861 26.5072 16.8061 26.5072 17.4526V46.4125C26.5072 47.059 26.764 47.6789 27.2211 48.1361C27.6782 48.5932 28.2982 48.85 28.9447 48.85ZM31.3822 19.8876H44.3375L44.3375 43.975L31.3822 43.975V19.8876ZM59.9838 48.85H77.8239C78.4704 48.85 79.0903 48.5932 79.5474 48.1361C80.0046 47.6789 80.2614 47.059 80.2614 46.4125V17.4526C80.2614 16.8061 80.0046 16.1861 79.5474 15.729C79.0903 15.2719 78.4704 15.0151 77.8239 15.0151L59.9838 15.0151C59.3373 15.0151 58.7174 15.2719 58.2602 15.729C57.8031 16.1861 57.5463 16.8061 57.5463 17.4526L57.5463 46.4125C57.5463 47.059 57.8031 47.6789 58.2602 48.1361C58.7174 48.5932 59.3373 48.85 59.9838 48.85ZM62.4213 19.8876H75.3864V43.975H62.4213L62.4213 19.8876ZM106.572 48.85H124.414C125.061 48.85 125.681 48.5932 126.138 48.1361C126.595 47.6789 126.852 47.059 126.852 46.4125V17.4526C126.852 16.8061 126.595 16.1861 126.138 15.729C125.681 15.2719 125.061 15.0151 124.414 15.0151L106.572 15.0151C105.925 15.0151 105.305 15.2719 104.848 15.729C104.391 16.1861 104.134 16.8061 104.134 17.4526V46.4125C104.134 47.059 104.391 47.6789 104.848 48.1361C105.305 48.5932 105.925 48.85 106.572 48.85ZM109.009 19.8876L121.977 19.8876V43.975H109.009V19.8876ZM150.474 0.684998L2.8537 0.684998C2.20723 0.684998 1.58725 0.941803 1.13013 1.39892C0.673006 1.85604 0.416199 2.47603 0.416199 3.1225L0.416199 16.5287C0.416199 17.1752 0.673006 17.7952 1.13013 18.2523C1.58725 18.7094 2.20723 18.9662 2.8537 18.9662H10.6805L10.6805 29.0672H2.8537C2.20723 29.0672 1.58725 29.324 1.13013 29.7812C0.673006 30.2383 0.416199 30.8583 0.416199 31.5047L0.416199 74.0952C0.416199 74.7416 0.673006 75.3616 1.13013 75.8188C1.58725 76.2759 2.20723 76.5327 2.8537 76.5327L150.474 76.5327C151.12 76.5327 151.74 76.2759 152.197 75.8188C152.654 75.3616 152.911 74.7416 152.911 74.0952V31.5169C152.911 30.8705 152.654 30.2505 152.197 29.7934C151.74 29.3362 151.12 29.0794 150.474 29.0794L142.647 29.0794V18.9784L150.474 18.9784C151.12 18.9784 151.74 18.7216 152.197 18.2645C152.654 17.8074 152.911 17.1874 152.911 16.5409V3.13468C152.912 2.81377 152.85 2.49576 152.728 2.1989C152.606 1.90204 152.427 1.63218 152.201 1.4048C151.974 1.17743 151.705 0.997012 151.409 0.873907C151.112 0.750802 150.794 0.684995 150.474 0.684998ZM129.582 71.6577H116L116 63.1752H129.577L129.582 71.6577ZM111.13 71.6577H97.5554L97.5554 63.1752H111.125L111.13 71.6577ZM92.6804 71.6577H79.1011L79.1011 63.1752H92.6804L92.6804 71.6577ZM74.2261 71.6577L60.6493 71.6577V63.1752H74.2261L74.2261 71.6577ZM55.7743 71.6577H42.1974V63.1752H55.7743V71.6577ZM37.3224 71.6577H23.7431V63.1752L37.3224 63.1752V71.6577ZM148.036 14.1034H140.209C139.563 14.1034 138.943 14.3602 138.486 14.8174C138.029 15.2745 137.772 15.8945 137.772 16.5409V31.5169C137.772 32.1634 138.029 32.7834 138.486 33.2405C138.943 33.6976 139.563 33.9544 140.209 33.9544H148.036V43.975H136.665V48.85H148.036V71.6552H134.457V60.7352C134.457 60.0888 134.2 59.4688 133.743 59.0117C133.286 58.5546 132.666 58.2977 132.019 58.2977L21.3056 58.2977C20.6591 58.2977 20.0391 58.5546 19.582 59.0117C19.1249 59.4688 18.8681 60.0888 18.8681 60.7352V71.6552H5.2912L5.2912 48.85H16.6621L16.6621 43.975H5.2912L5.2912 33.9544H13.118C13.7645 33.9544 14.3845 33.6976 14.8416 33.2405C15.2987 32.7834 15.5555 32.1634 15.5555 31.5169L15.5555 16.5409C15.5555 15.8945 15.2987 15.2745 14.8416 14.8174C14.3845 14.3602 13.7645 14.1034 13.118 14.1034L5.2912 14.1034L5.2912 5.57218L148.036 5.57218V14.1034Z" fill="black"/>
</svg>
