<svg width="247" height="250" viewBox="0 0 247 250" fill="none" xmlns="http://www.w3.org/2000/svg">
<path fill-rule="evenodd" clip-rule="evenodd" d="M183.024 30.653C183.004 30.6486 182.981 30.6442 182.954 30.6398C170.545 28.6466 157.416 32.5459 148.017 42.2441C138.184 52.3907 134.821 66.422 137.881 79.2335C139.14 84.504 138.087 90.8039 133.501 95.1933L133.447 95.2447L111.878 115.43C109.204 117.933 105.009 117.796 102.51 115.124C100.01 112.452 100.152 108.257 102.826 105.754L124.357 85.6044C124.888 85.082 125.369 83.9327 124.986 82.3274C120.917 65.2918 125.379 46.5636 138.503 33.0228C151.044 20.0824 168.571 14.8992 185.071 17.5496C190.917 18.4885 194.772 22.6804 195.926 27.5855C197.035 32.3031 195.658 37.5116 191.989 41.2974L174.638 59.1999C174.129 59.7258 173.912 60.47 174.06 61.1867L175.683 69.0319C175.866 69.9188 176.572 70.6032 177.465 70.7588L185.357 72.1348C186.078 72.2606 186.815 72.0209 187.325 71.4949L204.675 53.5925C208.344 49.8066 213.507 48.2671 218.257 49.2279C223.196 50.2272 227.506 53.9497 228.627 59.7624C231.793 76.1717 227.162 93.8527 214.62 106.793C201.497 120.334 182.918 125.38 165.764 121.847C164.147 121.515 163.013 122.031 162.508 122.579L143.042 144.73C140.625 147.482 136.436 147.755 133.687 145.34C130.938 142.925 130.67 138.737 133.088 135.985L152.637 113.739C156.88 109.018 163.145 107.768 168.452 108.862C181.353 111.519 195.272 107.718 205.106 97.5718C214.505 87.8736 217.991 74.6298 215.61 62.2886C215.605 62.262 215.6 62.2392 215.595 62.2193C215.341 62.1764 214.754 62.2317 214.19 62.8138L196.839 80.7162C193.271 84.3982 188.112 86.0757 183.065 85.1958L175.173 83.8198C168.928 82.7309 163.984 77.9397 162.7 71.7316L161.077 63.8864C160.04 58.8691 161.555 53.6606 165.124 49.9786L182.474 32.0762C183.038 31.4941 183.075 30.9054 183.024 30.653ZM183.121 30.6821C183.121 30.6822 183.125 30.6843 183.121 30.6821V30.6821Z" fill="black"/>
<path fill-rule="evenodd" clip-rule="evenodd" d="M63.601 219.05C63.6208 219.055 63.644 219.059 63.671 219.064C76.0803 221.057 89.2086 217.158 98.6077 207.459C108.441 197.313 111.804 183.281 108.744 170.47C107.485 165.199 108.538 158.899 113.124 154.51L113.178 154.459L134.747 134.274C137.421 131.771 141.616 131.907 144.115 134.58C146.615 137.251 146.473 141.446 143.799 143.949L122.268 164.099C121.737 164.621 121.256 165.771 121.639 167.376C125.708 184.412 121.246 203.14 108.122 216.681C95.5812 229.621 78.0541 234.804 61.5538 232.154C55.7084 231.215 51.8527 227.023 50.6994 222.118C49.5903 217.4 50.9674 212.192 54.6365 208.406L71.9868 190.503C72.4965 189.978 72.713 189.233 72.5647 188.517L70.9421 180.671C70.7588 179.785 70.0525 179.1 69.1604 178.945L61.2682 177.569C60.5472 177.443 59.8102 177.682 59.3004 178.208L41.9501 196.111C38.281 199.897 33.1182 201.436 28.3683 200.475C23.4292 199.476 19.1187 195.754 17.9976 189.941C14.8316 173.532 19.4632 155.851 32.0045 142.91C45.1276 129.369 63.707 124.323 80.8615 127.856C82.4778 128.189 83.612 127.672 84.1169 127.124L103.583 104.974C106 102.222 110.189 101.949 112.938 104.364C115.687 106.779 115.955 110.967 113.537 113.718L93.9881 135.965C89.7445 140.686 83.4804 141.935 78.1728 140.841C65.2717 138.185 51.3529 141.985 41.5193 152.132C32.1201 161.83 28.6337 175.074 31.015 187.415C31.0199 187.441 31.0248 187.464 31.0301 187.484C31.2838 187.527 31.8713 187.472 32.4354 186.89L49.7857 168.987C53.3541 165.305 58.5128 163.628 63.56 164.508L71.4522 165.884C77.6973 166.972 82.6411 171.764 83.925 177.972L85.5475 185.817C86.5853 190.834 85.07 196.043 81.5015 199.725L64.1512 217.627C63.5871 218.209 63.55 218.798 63.601 219.05ZM63.5039 219.021C63.504 219.021 63.4998 219.019 63.5039 219.021V219.021Z" fill="black"/>
</svg>
